<svg width="67" height="67" viewBox="0 0 67 67" fill="none" xmlns="http://www.w3.org/2000/svg">
<g clip-path="url(#clip0_68_11)">
<path d="M53.0417 9.77087H13.9583C12.4229 9.77087 11.1667 11.0271 11.1667 12.5625V20.9375C11.1667 22.473 12.4229 23.7292 13.9583 23.7292H53.0417C54.5771 23.7292 55.8333 22.473 55.8333 20.9375V12.5625C55.8333 11.0271 54.5771 9.77087 53.0417 9.77087Z" fill="#EDF1FF"/>
<path d="M53.0417 26.5209H13.9583C12.4229 26.5209 11.1667 27.7771 11.1667 29.3125V37.6875C11.1667 39.223 12.4229 40.4792 13.9583 40.4792H48.9938C50.8083 38.6646 55.8333 39.223 55.8333 37.6875V29.3125C55.8333 27.7771 54.5771 26.5209 53.0417 26.5209Z" fill="#EDF1FF"/>
<path d="M48.0167 43.2709H13.9583C12.4229 43.2709 11.1667 44.5271 11.1667 46.0625V54.4375C11.1667 55.973 12.4229 57.2292 13.9583 57.2292H53.0417C54.5771 57.2292 55.8333 55.973 55.8333 54.4375V51.0875C55.8333 46.7605 52.3438 43.2709 48.0167 43.2709Z" fill="#EDF1FF"/>
<path d="M60.0208 64.2083L57.2292 67H54.4375L51.6458 64.2083V49.4125H60.0208V55.8333L58.625 57.2291L60.0208 58.625V60.0208L58.625 61.4166L60.0208 62.8125V64.2083Z" fill="#C65522"/>
<path d="M66.3021 39.7812C65.8833 38.525 64.9062 37.5479 63.5104 37.2687C61.6958 36.85 58.9042 36.2916 55.8333 36.2916C52.7625 36.2916 49.9708 36.85 48.1562 37.1291C46.7604 37.4083 45.7833 38.3854 45.3646 39.6416C45.0854 41.0375 44.6667 42.7125 44.6667 44.6666C44.6667 46.6208 45.0854 48.2958 45.3646 49.552C45.7833 50.8083 46.7604 51.7854 48.1562 52.0645C49.9708 52.4833 52.6229 52.902 55.8333 52.902C59.0437 52.902 61.6958 52.3437 63.5104 52.0645C64.9062 51.7854 65.8833 50.8083 66.3021 49.552C66.7208 48.2958 67 46.6208 67 44.6666C67 42.7125 66.5812 41.0375 66.3021 39.7812ZM59.8812 43.2708H51.925C51.0875 43.2708 50.3896 42.5729 50.3896 41.7354V39.7812C50.3896 39.3625 52.9021 38.9437 55.9729 38.9437C59.0437 38.9437 61.5562 39.3625 61.5562 39.7812V41.7354C61.4167 42.5729 60.7187 43.2708 59.8812 43.2708Z" fill="#C65522"/>
<path d="M55.8333 51.7854H54.4375V67H55.8333V51.7854Z" fill="#D68600"/>
</g>
<defs>
<clipPath id="clip0_68_11">
<rect width="67" height="67" fill="white"/>
</clipPath>
</defs>
</svg>
