<svg width="67" height="67" viewBox="0 0 67 67" fill="none" xmlns="http://www.w3.org/2000/svg">
<path d="M42.6732 30.3463L36.4574 40.2262C36.2031 40.5786 35.8938 40.8879 35.5414 41.1422C34.6906 41.7358 33.64 41.9698 32.6177 41.7936C31.5953 41.6174 30.6838 41.0451 30.0808 40.2009C29.4778 39.3567 29.2321 38.3088 29.3969 37.2846C29.5618 36.2603 30.1239 35.3424 30.9613 34.7301L40.8412 28.5143C41.0658 28.3577 41.333 28.2738 41.6067 28.2738C41.8805 28.2738 42.1477 28.3577 42.3723 28.5143C42.6543 28.7179 42.8443 29.0249 42.9007 29.3682C42.9571 29.7115 42.8753 30.0631 42.6732 30.3463Z" fill="#EDF1FF"/>
<path d="M33.5 8.375C17.3127 8.375 4.1875 21.4871 4.1875 37.6744C4.17757 44.8362 6.7995 51.7519 11.5549 57.107C11.6988 57.2641 11.8297 57.4211 11.9736 57.565C12.2833 57.9003 12.6592 58.1676 13.0776 58.35C13.4959 58.5324 13.9476 58.626 14.4039 58.6247C14.8603 58.6235 15.3115 58.5275 15.7288 58.3429C16.1462 58.1582 16.5207 57.8889 16.8285 57.552C18.9504 55.246 21.5276 53.4053 24.3972 52.1463C27.2668 50.8872 30.3663 50.2371 33.5 50.2371C36.6337 50.2371 39.7332 50.8872 42.6028 52.1463C45.4724 53.4053 48.0496 55.246 50.1715 57.552C50.4793 57.8889 50.8538 58.1582 51.2712 58.3429C51.6885 58.5275 52.1397 58.6235 52.5961 58.6247C53.0524 58.626 53.5041 58.5324 53.9224 58.35C54.3408 58.1676 54.7167 57.9003 55.0264 57.565L55.4451 57.107C60.2005 51.7519 62.8224 44.8362 62.8125 37.6744C62.8125 21.4871 49.6873 8.375 33.5 8.375Z" stroke="#EDF1FF" stroke-width="5" stroke-linecap="round" stroke-linejoin="round"/>
<path d="M33.5 16.75V20.9375M54.4375 37.6875H50.25M16.75 37.6875H12.5625M21.6559 25.8434L18.6946 22.8821M45.3441 25.8434L48.3054 22.8821" stroke="#EDF1FF" stroke-width="3" stroke-miterlimit="10" stroke-linecap="round"/>
</svg>
